<?xml version="1.0" encoding="utf-8"?>
<!-- Generator: Adobe Illustrator 27.5.0, SVG Export Plug-In . SVG Version: 6.00 Build 0)  -->
<svg version="1.1" xmlns="http://www.w3.org/2000/svg" xmlns:xlink="http://www.w3.org/1999/xlink" x="0px" y="0px"
	 viewBox="0 0 1122 1122" style="enable-background:new 0 0 1122 1122;" xml:space="preserve">

<g id="Object">
	<g>
		<path style="fill:#AAD4C8;" d="M910.399,396.712l-1.196-1.804l-40.69-42.397c-2.402-3.59-0.823-8.84,3.567-10.164
			c6.173-1.875,12.039-5.194,17.083-9.98c16.965-16.183,17.721-42.811,1.523-58.973c-15.437-16.927-42.049-17.356-58.989-1.122
			c-5.008,4.801-8.585,10.516-10.721,16.608c-1.528,4.32-6.837,5.662-10.307,3.107l-40.547-42.558l-1.758-1.267
			c-2.554-2.448-6.653-2.43-9.305,0.125l-47.027,45.11c-2.918,0.194-5.789-1.428-6.683-4.538
			c-3.996-13.82-15.494-25.751-34.987-29.52c-1.998-0.393-4.124-0.411-6.143-0.053c-39.924,7.021-50.205,48.526-28.748,71.046
			c4.543,4.768,10.005,8.143,15.871,10.123c3.163,1.073,4.568,4.287,4.001,7.307l-47.297,45.378
			c-2.749,2.629-2.887,6.893-0.343,9.52l42.77,44.594l0.761,0.59l0.255,0.268c3.628,3.802,9.969,1.786,11.298-3.431
			c3.919-15.069,16.377-28.518,37.175-32.611c3.888-0.283,7.803-0.033,11.609,0.772c8.753,2.391,15.698,6.569,20.874,11.837
			c5.023,5.414,8.896,12.54,10.874,21.397c0.649,3.822,0.736,7.734,0.276,11.625c-5.044,20.593-19.04,32.433-34.267,35.647
			c-5.258,1.124-7.563,7.358-3.924,11.145l0.256,0.266l0.562,0.805l42.607,44.719c2.529,2.662,6.801,2.698,9.535,0.089
			l47.451-45.238c3.051-0.427,6.198,1.144,7.128,4.341c1.732,5.966,4.849,11.574,9.412,16.324
			c21.533,22.448,63.43,14.037,72.254-25.522c0.445-2.018,0.526-4.142,0.215-6.142c-2.892-19.648-14.303-31.684-27.905-36.29
			c-3.061-1.038-4.588-3.983-4.231-6.876l47.165-44.954C912.514,403.48,912.708,399.392,910.399,396.712z"/>
		<path style="fill:#616E7D;" d="M694.305,811.241h0.358l0.976,0.143l61.763,0.268c3.679,0.018,6.653-3.053,6.674-6.822
			l0.266-65.563c1.804-2.479,5.1-3.68,8.063-2.123c5.493,2.874,11.701,4.517,18.284,4.517c31.104,0.038,54.073-36.005,31.651-69.791
			c-1.134-1.696-2.616-3.237-4.272-4.412c-16.178-11.52-32.734-11.627-45.494-5.002c-2.877,1.484-6.045,0.519-7.89-1.73l0.26-65.152
			c0.026-3.661-2.79-6.66-6.321-6.822l-2.141-0.411l-58.764-0.036c-4.241-0.751-6.945-5.519-4.844-9.609
			c2.908-5.749,4.589-12.284,4.619-19.216c0.102-23.45-18.575-42.448-41.456-41.968c-22.908-0.608-41.662,18.303-41.687,41.756
			c0.015,6.944,1.63,13.482,4.563,19.249c2.06,4.09-0.669,8.858-4.921,9.594l-58.784-0.268l-2.121,0.391
			c-2.524,0.107-4.644,1.696-5.687,3.93c0.358,1.017,0.583,2.125,0.583,3.27l-0.112,67.272l-3.684-0.731
			c-1.671,0.731-3.582,0.856-5.406-0.107l-1.14-0.501c-1.982,0.018-4.022,0.161-6.127,0.465l-0.536,0.072l-0.537-0.089
			c-2.325-0.429-4.394-0.805-6.387-0.805c-18.85,0.036-34.456,14.589-36.817,33.503c-0.21,1.625-0.353,3.27-0.353,4.967
			c0,6.786,1.819,14.037,5.738,21.377c0.843,1.589,1.686,3.197,2.744,4.804c0.909,1.357,2.105,2.591,3.429,3.516
			c8.656,6.129,17.154,8.594,25.064,8.61c2.115-0.016,4.19-0.194,6.224-0.517l0.536-0.107l0.536,0.09
			c1.717,0.284,3.056,0.552,4.298,0.697c1.042-0.429,2.095-0.858,3.107-1.395c2.141-1.106,4.451-0.749,6.234,0.447l2.943-0.59
			l-0.107,68.294c0,0.874-0.153,1.733-0.353,2.555c1.078,2.266,3.286,3.873,5.912,3.873l61.779,0.039l0.945-0.128h0.373
			c5.263,0.018,8.186-5.946,5.35-10.537c-8.15-13.25-9.203-31.539,2.259-49.38c2.489-3.02,5.375-5.644,8.59-7.841
			c7.788-4.663,15.621-6.768,23.01-6.855c7.379,0.122,15.187,2.284,22.954,6.965c3.193,2.213,6.081,4.855,8.559,7.892
			c11.375,17.893,10.199,36.181,1.977,49.398C686.16,805.257,689.047,811.241,694.305,811.241z"/>
		<path style="fill:#616E7D;" d="M475.683,579.766l-0.138,0.358l-0.061,0.128l-0.353,1.408c-0.015,1.484,1.19,2.984,2.677,3.303
			l58.335-0.105c0.838,0,1.538,0.232,2.269,0.411v-0.018c2.049,0.089,3.924,0.805,5.462,1.965l0.373-1.84l0.266-65.56
			c1.809-2.483,5.105-3.661,8.063-2.125c5.483,2.874,11.686,4.517,18.278,4.517c31.119,0.036,54.078-36.004,31.656-69.793
			c-1.145-1.696-2.612-3.232-4.267-4.41c-16.173-11.521-32.744-11.628-45.509-5c-2.862,1.479-6.045,0.516-7.885-1.735l0.276-65.149
			c0.005-3.659-2.806-6.663-6.336-6.822l-2.136-0.409l-58.764-0.039c-4.251-0.748-6.955-5.521-4.86-9.606
			c2.933-5.754,4.599-12.289,4.64-19.221c0.107-23.462-18.57-42.448-41.472-41.968c-22.892-0.603-41.651,18.306-41.681,41.755
			c0.01,6.947,1.64,13.485,4.563,19.254c2.06,4.086-0.659,8.858-4.905,9.571l-58.789-0.25l-2.126,0.391
			c-3.536,0.146-6.357,3.127-6.357,6.809l-0.056,65.148c-1.87,2.231-5.043,3.196-7.894,1.679
			c-12.729-6.681-29.305-6.663-45.535,4.786c-1.661,1.163-3.143,2.698-4.298,4.394c-22.601,33.664,0.205,69.812,31.314,69.935
			c6.587,0.036,12.806-1.571,18.293-4.43c2.979-1.533,6.28-0.319,8.048,2.182l-0.051,65.56c0,0.82,0.189,1.589,0.45,2.322
			c1.528-1.127,3.388-1.822,5.427-1.911v0.018c0.72-0.179,1.436-0.411,2.274-0.411l58.34,0.105c1.482-0.319,2.693-1.819,2.662-3.283
			l-0.342-1.428l-0.066-0.161l-0.076-0.161l-0.077-0.197c-2.969-6.02-4.691-12.808-4.737-20.003h-0.01v-0.194v-0.038v-0.107
			c0-4.553,0.858-8.784,1.993-12.752c5.361-18.59,21.968-32.376,41.978-32.376l1.057,0.018l0.89-0.018
			c19.99,0,36.612,13.787,41.973,32.376c1.134,3.968,1.977,8.199,1.977,12.769v0.09
			C480.435,566.803,478.688,573.678,475.683,579.766z"/>
		<path style="fill:#616E7D;" d="M495.943,664.76c7.68-6.857,17.696-11.055,28.697-11.088l0.016,3.285v-3.285
			c2.667,0,5.013,0.462,7.179,0.838c2.218-0.286,4.431-0.48,6.643-0.498c1.088,0,2.181,0.051,3.28,0.156l0.082-59.326
			c0-1.875-1.333-3.229-2.897-3.409l-0.22-0.056l-0.506-0.018l-0.486-0.176l-0.986-0.197l-59.06,0.105l-0.286-0.053
			c-4.619-0.838-7.803-4.643-8.232-9.088l-0.164-0.892c0-1.395,0.332-2.823,0.991-4.198h-0.031l0.133-0.34l0.076-0.107
			c2.622-5.289,4.134-11.198,4.134-17.522v-0.089c0-3.713-0.69-7.302-1.717-10.894c-4.62-15.928-18.718-27.52-35.509-27.52
			l-0.858,0.018h-0.092h-0.097l-0.894-0.018c-7.9,0-15.151,2.627-21.15,7.003c-6.76,4.929-11.916,12.072-14.348,20.516
			c-0.598,2.036-1.017,4.09-1.319,6.162c-0.235,1.553-0.424,3.107-0.424,4.696v0.018v0.107c0,6.323,1.523,12.233,4.16,17.501
			l0.081,0.146l0.056,0.161l0.082,0.197l-0.026,0.015c0.618,1.339,0.961,2.77,0.961,4.163l-0.153,0.805
			c-0.399,4.481-3.597,8.321-8.232,9.16l-0.281,0.053l-59.06-0.105l-0.48,0.089l-0.516,0.107l-0.48,0.176l-0.516,0.018
			c-1.661,0.072-3.118,1.502-3.133,3.449l0.112,66.362l-0.772,0.948c-1.85,2.213-4.573,3.626-7.583,3.626
			c-1.502,0-3.06-0.357-4.466-1.109c-5.028-2.606-10.664-4.088-16.684-4.088c-7.946,0-16.602,2.57-25.324,8.768
			c-1.319,0.93-2.54,2.159-3.429,3.518c-5.974,8.948-8.483,17.895-8.483,26.165c0,21.286,16.699,38.432,37.134,38.465h0.066
			c6.004,0,11.666-1.464,16.694-4.088c1.375-0.713,2.872-1.071,4.328-1.071c3.296,0,6.208,1.715,8.022,4.231l0.638,0.894
			l0.103,66.631c0,1.98,1.538,3.465,3.27,3.465l61.529-0.105l0.976-0.146h0.25h0.358c0.986-0.018,1.62-0.358,2.182-0.928
			c0.536-0.608,0.879-1.482,0.879-2.412l-0.583-2.052c-4.313-6.968-6.816-15.253-6.816-24.111c0-9.303,2.77-19.237,8.937-28.882
			l0.118-0.176l0.117-0.141c2.693-3.27,5.831-6.127,9.3-8.503l0.082-0.054l0.072-0.053c8.252-4.964,16.684-7.269,24.671-7.412h0.025
			h0.077c7.992,0.143,16.413,2.448,24.656,7.412l0.082,0.036l0.087,0.072c3.47,2.376,6.602,5.233,9.29,8.503l0.128,0.161
			l0.112,0.155c6.162,9.645,8.943,19.579,8.927,28.899c0,8.84-2.483,17.125-6.811,24.111l-0.593,2.034
			c-0.005,0.93,0.353,1.804,0.894,2.412c0.547,0.57,1.196,0.909,2.182,0.928h0.593l0.235,0.038l0.736,0.107l61.549,0.105
			c1.727,0,3.27-1.484,3.276-3.465l0.107-60.169c-1.385,0.179-2.821,0.307-4.318,0.307h-0.02c-2.545-0.018-4.548-0.575-6.229-0.859
			c-2.157,0.322-4.334,0.552-6.582,0.552c-8.998,0-18.569-2.856-27.915-9.195l-1.058-0.644c-1.977-1.428-3.735-3.214-5.12-5.286
			c-3.52-5.269-5.953-10.641-7.517-15.966c-0.48-1.658-0.843-3.322-1.155-4.962c-0.578-3.037-0.94-6.04-0.94-8.985
			C480.757,685.264,486.628,673.063,495.943,664.76z"/>
	</g>
</g>
</svg>
