<?xml version="1.0" encoding="utf-8"?>
<!-- Generator: Adobe Illustrator 27.5.0, SVG Export Plug-In . SVG Version: 6.00 Build 0)  -->
<svg version="1.1" xmlns="http://www.w3.org/2000/svg" xmlns:xlink="http://www.w3.org/1999/xlink" x="0px" y="0px"
	 viewBox="0 0 1122 1122" style="enable-background:new 0 0 1122 1122;" xml:space="preserve">

<g id="Object">
	<g>
		<path style="fill:#AAD4C8;" d="M281,576.193c0,96.648,49.629,181.673,124.752,231.104c11.443-11.527,22.886-23.046,34.329-34.561
			c-17.508-10.087-33.667-22.268-47.925-36.495c-41.51-41.559-67.116-98.708-67.127-162.086
			c0.01-39.154,9.907-75.839,27.163-108.014l-25.928,4.114c-2.568,0.405-5.185-0.422-7.047-2.257
			c-1.862-1.823-2.741-4.42-2.371-7.003l3.867-27.647C295.51,475.044,281,523.919,281,576.193z"/>
		<path style="fill:#82BFAB;" d="M710.519,730.429c40.067-40.105,64.721-95.137,64.737-156.273
			c-0.015-61.146-24.669-116.178-64.737-156.276c-40.097-40.06-95.115-64.716-156.276-64.741
			c-32.971,0.01-64.08,7.289-92.102,20.194l51.397,54.136c1.778,1.87,2.489,4.463,2.084,6.971c2.583-4.114,7.141-6.879,12.371-6.879
			c8.095,0,14.658,6.568,14.658,14.658v126.004l97.673,101.396c5.62,5.813,5.443,15.107-0.385,20.725
			c-5.842,5.6-15.117,5.438-20.723-0.403L517.441,584.305c-2.637-2.741-4.094-6.371-4.094-10.159V442.218
			c0-1.405,0.252-2.736,0.622-4.025c-1.255,1.586-3.047,2.726-5.107,3.05L366.84,463.805l-8.327,1.329l-6.322,1.007
			c-17.256,32.176-27.153,68.86-27.163,108.014c0.01,63.378,25.617,120.526,67.127,162.086
			c14.258,14.226,30.418,26.407,47.925,36.495c0.523-0.511,1.032-1.03,1.546-1.543c2.538-2.548,6.47-3.153,9.645-1.481
			c3.689,1.936,7.418,3.761,11.22,5.501l-0.029-0.012l1.166,0.529c3.531,1.595,7.151,3.102,10.776,4.509l0.05,0.022l1.052,0.417
			c8.025,3.065,16.254,5.684,24.688,7.81l0.632,0.146l0.089,0.024c3.694,0.914,7.452,1.729,11.275,2.457l0.015,0.007
			c0.993,0.19,2.114,0.38,3.359,0.598c2.983,0.523,5.966,0.988,8.998,1.403l-0.05-0.008c1.462,0.19,2.81,0.378,4.094,0.521
			c2.968,0.343,5.971,0.61,8.988,0.837c1.462,0.106,2.731,0.232,3.872,0.299l-0.035-0.003c4.287,0.245,8.544,0.396,12.811,0.396
			C615.405,795.141,670.422,770.489,710.519,730.429z"/>
		<path style="fill:#616E7D;" d="M451.272,769.711c-3.176-1.672-7.107-1.067-9.645,1.481c-0.514,0.514-1.023,1.032-1.546,1.543
			c-11.443,11.515-22.886,23.034-34.329,34.561c-0.069,0.064-0.113,0.123-0.177,0.193c-1.783,1.785-2.632,4.302-2.331,6.808
			c0.321,2.501,1.768,4.729,3.936,6.025c42.986,25.733,93.327,40.593,147.065,40.591c79.118,0,150.976-32.163,202.773-83.992
			C808.834,725.144,841,653.276,841,574.21v-0.01c0-0.015,0-0.032,0-0.044v-0.062c0-79.066-32.166-150.929-83.983-202.712
			c-51.777-51.837-123.655-83.992-202.773-83.987c-50.562-0.005-97.999,13.322-139.232,36.299l-57.013-60.05
			c-2.168-2.277-5.457-3.132-8.46-2.168c-2.998,0.963-5.205,3.57-5.635,6.682l-21.379,152.314l-1.813,12.875l-3.867,27.647
			c-0.37,2.583,0.509,5.181,2.371,7.003c1.862,1.835,4.479,2.662,7.047,2.257l25.928-4.114l6.322-1.007l8.327-1.329l142.022-22.562
			c2.059-0.324,3.852-1.465,5.107-3.05c0.38-1.333,0.933-2.6,1.654-3.753c0.405-2.508-0.306-5.101-2.084-6.971l-51.397-54.136
			c28.022-12.905,59.131-20.184,92.102-20.194c61.161,0.025,116.178,24.681,156.276,64.741
			c40.067,40.097,64.721,95.13,64.737,156.276c-0.015,61.136-24.669,116.168-64.737,156.273
			c-40.097,40.06-95.115,64.712-156.276,64.737c-4.267,0-8.524-0.151-12.811-0.396l0.035,0.003c-1.141-0.067-2.41-0.193-3.872-0.299
			c-3.018-0.227-6.02-0.494-8.988-0.837c-1.284-0.143-2.632-0.331-4.094-0.521l0.05,0.008c-3.032-0.415-6.016-0.88-8.998-1.403
			c-1.245-0.217-2.366-0.408-3.359-0.598l-0.015-0.007c-3.823-0.729-7.581-1.543-11.275-2.457l-0.089-0.024l-0.632-0.146
			c-8.435-2.126-16.663-4.746-24.688-7.81l-1.052-0.417l-0.05-0.022c-3.625-1.407-7.245-2.914-10.776-4.509l-1.166-0.529
			l0.029,0.012C458.69,773.472,454.961,771.647,451.272,769.711z"/>
		<path style="fill:#AAD4C8;" d="M527.995,427.56c-5.23,0-9.789,2.766-12.371,6.879c-0.721,1.154-1.274,2.42-1.654,3.753
			c-0.371,1.289-0.622,2.62-0.622,4.025v131.928c0,3.788,1.457,7.418,4.094,10.159l101.777,105.636
			c5.605,5.84,14.88,6.003,20.723,0.403c5.828-5.618,6.005-14.912,0.385-20.725l-97.673-101.396V442.218
			C542.653,434.129,536.089,427.56,527.995,427.56z"/>
	</g>
</g>
</svg>
