<?xml version="1.0" encoding="utf-8"?>
<!-- Generator: Adobe Illustrator 27.5.0, SVG Export Plug-In . SVG Version: 6.00 Build 0)  -->
<svg version="1.1" xmlns="http://www.w3.org/2000/svg" xmlns:xlink="http://www.w3.org/1999/xlink" x="0px" y="0px"
	 viewBox="0 0 1122 1122" style="enable-background:new 0 0 1122 1122;" xml:space="preserve">

<g id="Object">
	<g>
		<polygon style="fill:#616E7D;" points="353.32,576.904 343.423,577.157 343.423,577.166 		"/>
		<path style="fill:#616E7D;" d="M396.091,736.844c-43.013-43.069-67.244-94.293-72.097-152.359l-59.878,6.697l-0.805,0.085
			l-0.81,0.031c-4.679,0.149-10.825,0.399-16.904,1.144c-1.305,0.154-2.604,0.343-3.903,0.534
			c7.637,76.447,41.416,147.957,95.862,202.402C400.506,858.338,484.204,893,573.228,893c83.94,0,163.134-30.85,224.671-87.151
			l-58.623-58.623c-45.774,40.629-104.1,62.886-165.884,62.886C506.31,810.112,443.345,784.092,396.091,736.844z"/>
		<path style="fill:#616E7D;" d="M570.669,229c-89.041,0-172.716,34.665-235.665,97.61c-7.406,7.398-14.39,15.099-21.003,23.07
			l59.001,59.006c6.388-8.213,13.125-16.142,20.536-23.545c47.247-47.231,110.094-73.253,176.968-73.262
			c67.087,0.009,130.052,26.031,177.311,73.262c45.628,45.645,71.428,105.981,73.076,170.509
			c27.414-4.501,54.901-8.907,82.382-13.313c-4.824-81.544-38.998-157.775-96.935-215.727C743.391,263.665,659.71,229,570.703,229
			H570.669z"/>
		<polygon style="fill:#AAD4C8;" points="253.19,288.88 218.725,522.065 451.302,486.981 373.002,408.687 314.002,349.68 		"/>
		<polygon style="fill:#AAD4C8;" points="739.275,747.225 797.899,805.849 857.928,865.878 893.007,633.301 659.811,667.766 		"/>
	</g>
</g>
</svg>
